<svg version="1.2" baseProfile="tiny-ps" xmlns="http://www.w3.org/2000/svg" viewBox="0 0 303 50" width="303" height="50"><title>MAGbank</title><style>tspan { white-space:pre }.shp0 { fill: #ffffff } </style><path fill-rule="evenodd" class="shp0" d="M61.86 3.5L53.56 45.63L80.56 3.5L93.05 3.5L103.88 48.37L91.26 48.37L89.47 39.66L70.38 39.66L65.19 48.37L41.3 48.37L45.91 24.72L30.98 43.95L25.41 43.95L17.27 24.72L12.53 48.37L0.88 48.37L9.84 3.5L20.16 3.5L30.66 29.46L51.03 3.5L61.86 3.5ZM87.55 30.3L84.54 15.74L75.95 30.3L87.55 30.3ZM136.81 24.98L148.02 24.98L144.24 43.89C139.63 47.35 133.35 49.27 126.56 49.27C112.85 49.27 104.01 41.26 104.01 29.53C104.01 13.95 115.48 2.6 132.51 2.6C141.48 2.6 148.02 5.49 152.05 10.87L142.96 18.05C140.01 14.4 136.55 13.12 131.94 13.12C122.71 13.12 116.82 19.72 116.82 28.69C116.82 34.72 120.92 38.76 128.29 38.76C130.34 38.76 132.32 38.44 134.24 37.67L136.81 24.98ZM186 28.57C186 40.1 178 48.63 167.04 48.63C160 48.63 155.38 45.42 153.78 39.85L152.12 48.37L148.98 48.37L158.46 0.81L161.66 0.81L157.63 21.19C160.83 17.09 165.63 14.65 171.53 14.65C180.17 14.65 186 19.98 186 28.57ZM182.74 28.76C182.74 21.64 178.38 17.54 170.89 17.54C161.85 17.54 155.19 24.65 155.19 34.53C155.19 41.64 159.55 45.74 167.11 45.74C176.14 45.74 182.74 38.57 182.74 28.76ZM226.42 14.91L219.76 48.37L216.69 48.37L217.97 41.83C214.77 46.07 209.83 48.63 203.88 48.63C195.23 48.63 189.46 43.31 189.46 34.72C189.46 23.18 197.41 14.65 208.36 14.65C215.34 14.65 219.95 17.8 221.56 23.24L223.22 14.91L226.42 14.91ZM220.21 28.76C220.21 21.64 215.85 17.54 208.36 17.54C199.33 17.54 192.67 24.72 192.67 34.53C192.67 41.64 197.02 45.74 204.52 45.74C213.55 45.74 220.21 38.63 220.21 28.76ZM262.62 25.36C262.62 26.51 262.49 27.73 262.23 29.01L258.39 48.37L255.19 48.37L259.03 29.01C259.29 27.86 259.35 26.83 259.35 25.81C259.35 20.62 256.21 17.54 249.93 17.54C242.31 17.54 236.93 21.83 235.26 30.17L231.61 48.37L228.41 48.37L235.07 14.91L238.21 14.91L236.93 21.26C240.2 16.71 245.06 14.65 250.77 14.65C258.45 14.65 262.62 18.76 262.62 25.36ZM284.78 28.57L296.82 48.37L293.11 48.37L282.28 30.49L271.9 38.5L269.92 48.37L266.72 48.37L276.2 0.81L279.4 0.81L272.74 34.33L297.66 14.91L302.33 14.91L284.78 28.57Z" /></svg>